<svg xmlns="http://www.w3.org/2000/svg" viewBox="0 0 427.16 103.1"><g id="Calque_2" data-name="Calque 2"><g id="logo"><path id="L" d="M33.29,85.42C5.16,85.42,3.1,84.1,3,58.18V0H0V58.18c-.15,42.41,1,44.47,33.28,44.92h25V85.42Z"/><path id="U" d="M145.58,0V51.55c0,33.87,0,33.87-35.05,33.87s-35,0-35-33.87V0h-3V58.91h0c.09,44.18,1.9,44.19,38,44.19s37.9,0,38-44.19h0V0Z"/><path id="O" d="M199.26,85.42c-33.58,0-33.58,0-33.58-33.87s0-33.88,33.58-33.88,33.58,0,33.58,33.88S232.84,85.42,199.26,85.42Zm0,17.68c36.52,0,36.52,0,36.52-51.55S235.64,0,199.26,0c-36.53,0-36.53,0-36.53,51.55S162.73,103.1,199.26,103.1Z"/><path id="M" d="M250.49,103.1h2.91V44.72c.29-25.41,10.16-27.3,21.49-27.3,14.23,0,19.6,1.89,20,34.27h2.91c0-11.9-.29-21-1-28.17,2.91-3.63,5.52-6.1,13.8-6.1,14.23,0,22.5,1.89,22.94,25.56V103.1h2.9V43c-.14-41.09-7.69-43-25.84-43-8,0-13.65,1.31-17,8.13C290.13.58,284.32,0,274.89,0c-10.17,0-17.72.87-21.49,14.52V1.45h-2.91Z"/><path id="U-2" data-name="U" d="M424.21,0V51.55c0,33.87,0,33.87-35,33.87s-35.05,0-35.05-33.87V0h-2.95V58.91h0c.09,44.18,1.9,44.19,38,44.19s37.9,0,38-44.19h0V0Z"/></g></g></svg>